<svg width="4" height="8" viewBox="0 0 4 8" fill="none" xmlns="http://www.w3.org/2000/svg">
<path d="M3.83852 0.836538C4.05248 0.646374 4.05402 0.336677 3.84196 0.14481C3.6299 -0.0470581 3.28454 -0.0484398 3.07058 0.141723L1.76532 1.3018C1.2737 1.73872 0.8719 2.09582 0.58695 2.414C0.290638 2.74486 0.0761418 3.08069 0.018843 3.48381C-0.00628099 3.66056 -0.00628095 3.83944 0.0188429 4.01619C0.0761418 4.41931 0.290638 4.75514 0.58695 5.08601C0.871899 5.40418 1.27369 5.76127 1.76531 6.19819L3.07058 7.35828C3.28454 7.54844 3.6299 7.54706 3.84196 7.35519C4.05402 7.16332 4.05248 6.85363 3.83852 6.66346L2.55636 5.52391C2.036 5.06143 1.67905 4.74315 1.43752 4.47345C1.20291 4.21148 1.12242 4.04321 1.101 3.8925C1.08755 3.79787 1.08755 3.70213 1.101 3.6075C1.12242 3.45679 1.20291 3.28852 1.43752 3.02655C1.67905 2.75686 2.036 2.43857 2.55636 1.97609L3.83852 0.836538Z" fill="currentColor"/>
</svg>
