<svg width="14" height="17" viewBox="0 0 14 17" fill="none" xmlns="http://www.w3.org/2000/svg">
<path d="M1 6.62954C1 5.13266 1 4.38422 1.20976 3.77851C1.63369 2.55434 2.65662 1.59457 3.96136 1.19681C4.60692 1 5.40462 1 7 1C8.59538 1 9.39308 1 10.0386 1.19681C11.3434 1.59457 12.3663 2.55434 12.7902 3.77851C13 4.38422 13 5.13266 13 6.62955V12.5706C13 14.1124 13 14.8833 12.7069 15.291C12.3488 15.7891 11.7248 16.0584 11.0887 15.9893C10.568 15.9328 9.9442 15.4311 8.69655 14.4277C8.14735 13.986 7.87275 13.7652 7.57113 13.6652C7.20157 13.5427 6.79843 13.5427 6.42887 13.6652C6.12725 13.7652 5.85265 13.986 5.30345 14.4277C4.0558 15.4311 3.43197 15.9328 2.91131 15.9893C2.27524 16.0584 1.65118 15.7891 1.2931 15.291C1 14.8833 1 14.1124 1 12.5706V6.62954Z" stroke="currentColor" stroke-width="1.5"/>
</svg>
