<svg width="10" height="11" viewBox="0 0 10 11" fill="none" xmlns="http://www.w3.org/2000/svg">
<path d="M8.20792 3.6723L8.08917 4.41284L8.20792 3.6723ZM6.36069 1.80198L5.6197 1.91789V1.91789L6.36069 1.80198ZM1.91603 9.57029L2.36046 8.96615L1.91603 9.57029ZM1.42441 9.07252L2.03376 8.63526L1.42441 9.07252ZM8.57559 9.07252L7.96624 8.63526L8.57559 9.07252ZM8.08397 9.57029L7.63954 8.96615L8.08397 9.57029ZM8.08397 1.42971L8.52839 0.825569L8.08397 1.42971ZM8.57559 1.92748L9.18495 1.49023L8.57559 1.92748ZM1.91603 1.42971L2.36046 2.03385L1.91603 1.42971ZM1.42441 1.92748L2.03376 2.36474L1.42441 1.92748ZM6.33333 1.01302L6.35933 0.263469L6.33333 1.01302ZM8.98714 3.7L9.73671 3.67464L8.98714 3.7ZM3.22222 5.65C2.80801 5.65 2.47222 5.98579 2.47222 6.4C2.47222 6.81421 2.80801 7.15 3.22222 7.15V5.65ZM6.77778 7.15C7.19199 7.15 7.52778 6.81421 7.52778 6.4C7.52778 5.98579 7.19199 5.65 6.77778 5.65V7.15ZM3.22222 3.85C2.80801 3.85 2.47222 4.18579 2.47222 4.6C2.47222 5.01421 2.80801 5.35 3.22222 5.35V3.85ZM4.55556 5.35C4.96977 5.35 5.30556 5.01421 5.30556 4.6C5.30556 4.18579 4.96977 3.85 4.55556 3.85V5.35ZM8.32668 2.93176C7.70184 2.83156 7.20289 2.33307 7.10168 1.68607L5.6197 1.91789C5.8197 3.1964 6.81226 4.20807 8.08917 4.41284L8.32668 2.93176ZM8.25 5.05V5.95H9.75V5.05H8.25ZM1.75 5.95V5.05H0.25V5.95H1.75ZM5 9.25C4.14981 9.25 3.57317 9.24895 3.1339 9.20076C2.70922 9.15417 2.503 9.071 2.36046 8.96615L1.47161 10.1744C1.91321 10.4993 2.4157 10.631 2.97033 10.6918C3.51038 10.7511 4.18364 10.75 5 10.75V9.25ZM0.25 5.95C0.25 6.77719 0.248995 7.45708 0.307308 8.00203C0.367065 8.56048 0.496103 9.06528 0.815055 9.50977L2.03376 8.63526C1.9283 8.4883 1.84514 8.27554 1.79879 7.84243C1.751 7.39583 1.75 6.81019 1.75 5.95H0.25ZM2.36046 8.96615C2.23544 8.87418 2.12512 8.76259 2.03376 8.63526L0.815055 9.50977C0.997822 9.76447 1.21932 9.98884 1.47161 10.1744L2.36046 8.96615ZM8.25 5.95C8.25 6.81019 8.249 7.39583 8.20121 7.84243C8.15486 8.27554 8.0717 8.4883 7.96624 8.63526L9.18495 9.50977C9.5039 9.06528 9.63294 8.56048 9.69269 8.00203C9.751 7.45708 9.75 6.77719 9.75 5.95H8.25ZM5 10.75C5.81636 10.75 6.48962 10.7511 7.02967 10.6918C7.5843 10.631 8.08679 10.4993 8.52839 10.1744L7.63954 8.96615C7.497 9.071 7.29078 9.15417 6.8661 9.20076C6.42683 9.24895 5.85019 9.25 5 9.25V10.75ZM7.96624 8.63526C7.87488 8.76259 7.76456 8.87418 7.63954 8.96615L8.52839 10.1744C8.78068 9.98884 9.00218 9.76447 9.18495 9.50977L7.96624 8.63526ZM7.63954 2.03385C7.76456 2.12582 7.87488 2.23741 7.96624 2.36474L9.18495 1.49023C9.00218 1.23553 8.78068 1.01116 8.52839 0.825569L7.63954 2.03385ZM5 0.25C4.18364 0.25 3.51037 0.248945 2.97033 0.308186C2.4157 0.369028 1.91321 0.500715 1.47161 0.825569L2.36046 2.03385C2.503 1.929 2.70922 1.84583 3.1339 1.79924C3.57317 1.75106 4.14981 1.75 5 1.75V0.25ZM1.75 5.05C1.75 4.18981 1.751 3.60417 1.79879 3.15757C1.84514 2.72446 1.9283 2.5117 2.03376 2.36474L0.815055 1.49023C0.496103 1.93472 0.367065 2.43952 0.307308 2.99797C0.248995 3.54292 0.25 4.22281 0.25 5.05H1.75ZM1.47161 0.825569C1.21932 1.01116 0.997822 1.23553 0.815055 1.49023L2.03376 2.36474C2.12512 2.23741 2.23544 2.12582 2.36046 2.03385L1.47161 0.825569ZM5 1.75C5.52372 1.75 5.94784 1.7501 6.30733 1.76257L6.35933 0.263469C5.9683 0.249904 5.51532 0.25 5 0.25V1.75ZM6.30733 1.76257C7.12587 1.79096 7.43735 1.88511 7.63954 2.03385L8.52839 0.825569C7.92649 0.3828 7.19785 0.292557 6.35933 0.263469L6.30733 1.76257ZM5.58333 1.01302C5.58334 1.39525 5.58139 1.67294 5.6197 1.91789L7.10168 1.68607C7.08585 1.58487 7.08334 1.44957 7.08333 1.01301L5.58333 1.01302ZM9.75 5.05C9.75 4.52808 9.75009 4.06998 9.73671 3.67464L8.23757 3.72536C8.24991 4.08993 8.25 4.51988 8.25 5.05H9.75ZM9.73671 3.67464C9.70804 2.8272 9.6193 2.09554 9.18495 1.49023L7.96624 2.36474C8.1161 2.57357 8.20948 2.89503 8.23757 3.72536L9.73671 3.67464ZM8.98715 2.95C8.55499 2.95 8.424 2.94737 8.32668 2.93176L8.08917 4.41284C8.33372 4.45205 8.61062 4.45 8.98714 4.45L8.98715 2.95ZM3.22222 7.15H6.77778V5.65H3.22222V7.15ZM3.22222 5.35H4.55556V3.85H3.22222V5.35Z" fill="#2D264B" fill-opacity="0.3"/>
</svg>
