<svg width="16" height="14" viewBox="0 0 16 14" fill="none" xmlns="http://www.w3.org/2000/svg">
<path d="M8.75 0C8.33579 0 8 0.335786 8 0.75C8 1.16421 8.33579 1.5 8.75 1.5L14.75 1.5C15.1642 1.5 15.5 1.16421 15.5 0.75C15.5 0.335787 15.1642 0 14.75 0H8.75Z" fill="currentColor"/>
<path d="M0.75 6C0.335786 6 0 6.33579 0 6.75C0 7.16421 0.335786 7.5 0.75 7.5H14.75C15.1642 7.5 15.5 7.16421 15.5 6.75C15.5 6.33579 15.1642 6 14.75 6H0.75Z" fill="currentColor"/>
<path d="M4.75 12C4.33579 12 4 12.3358 4 12.75C4 13.1642 4.33579 13.5 4.75 13.5L14.75 13.5C15.1642 13.5 15.5 13.1642 15.5 12.75C15.5 12.3358 15.1642 12 14.75 12L4.75 12Z" fill="currentColor"/>
</svg>
