<svg width="19" height="21" viewBox="0 0 19 21" fill="none" xmlns="http://www.w3.org/2000/svg">
<path fill-rule="evenodd" clip-rule="evenodd" d="M8.42126 2.7847C8.14642 4.63815 7.80114 7.52773 9.66926 10.7634C11.5374 13.9991 14.2125 15.1449 15.955 15.8336C16.0152 15.8574 16.0753 15.881 16.1351 15.9045C16.4956 16.0462 16.8427 16.1827 17.1121 16.3165C17.2719 16.396 17.4422 16.4924 17.5898 16.6129C17.7349 16.7314 17.9129 16.9176 17.9969 17.1901C18.1878 17.8093 17.7641 18.2795 17.5044 18.5157C17.1959 18.7964 16.7293 19.1003 16.1268 19.4482C10.9851 22.4167 4.41055 20.6551 1.44202 15.5134C-1.52651 10.3718 0.23515 3.79718 5.3768 0.828651C5.97929 0.480803 6.47585 0.228732 6.87318 0.101822C7.20754 -0.00497281 7.82659 -0.136818 8.26741 0.338105C8.46144 0.54715 8.53368 0.794353 8.56374 0.979263C8.59433 1.16736 8.59265 1.36306 8.58152 1.5412C8.56277 1.84144 8.50739 2.21023 8.44987 2.59335C8.44034 2.65682 8.43075 2.72068 8.42126 2.7847ZM7.06837 1.63253C6.8415 1.73286 6.53534 1.89182 6.1268 2.12769C1.70259 4.68201 0.186743 10.3392 2.74106 14.7634C5.29538 19.1876 10.9526 20.7035 15.3768 18.1492C15.7853 17.9133 16.0761 17.7276 16.2764 17.5813C16.0949 17.5009 15.8711 17.4127 15.5944 17.3038C15.5335 17.2798 15.4699 17.2548 15.4037 17.2286C13.5845 16.5096 10.5021 15.2059 8.37022 11.5134C6.23835 7.82091 6.65056 4.49965 6.93748 2.56468C6.94792 2.49426 6.95802 2.42674 6.96771 2.36194C7.01169 2.06787 7.04727 1.82999 7.06837 1.63253ZM7.46835 1.4976C7.4679 1.49815 7.46109 1.49928 7.44927 1.49934C7.46289 1.49708 7.4688 1.49705 7.46835 1.4976ZM16.5822 17.318C16.5882 17.3078 16.5925 17.3025 16.5932 17.3024C16.594 17.3023 16.591 17.3074 16.5822 17.318Z" fill="#544981"/>
</svg>
