<svg width="12" height="12" viewBox="0 0 12 12" fill="none" xmlns="http://www.w3.org/2000/svg">
<path d="M9.62562 8.56496C9.33273 8.27207 8.85785 8.27206 8.56496 8.56495C8.27206 8.85785 8.27206 9.33272 8.56495 9.62561L9.62562 8.56496ZM10.4697 11.5304C10.7626 11.8232 11.2374 11.8233 11.5303 11.5304C11.8232 11.2375 11.8232 10.7626 11.5303 10.4697L10.4697 11.5304ZM8.56495 9.62561L10.4697 11.5304L11.5303 10.4697L9.62562 8.56496L8.56495 9.62561ZM5.28572 8.82143C3.333 8.82143 1.75 7.23844 1.75 5.28572H0.25C0.25 8.06687 2.50457 10.3214 5.28572 10.3214V8.82143ZM8.82144 5.28572C8.82144 7.23844 7.23845 8.82143 5.28572 8.82143V10.3214C8.06687 10.3214 10.3214 8.06687 10.3214 5.28572H8.82144ZM5.28572 1.75C7.23845 1.75 8.82144 3.333 8.82144 5.28572H10.3214C10.3214 2.50457 8.06687 0.25 5.28572 0.25V1.75ZM5.28572 0.25C2.50457 0.25 0.25 2.50457 0.25 5.28572H1.75C1.75 3.333 3.333 1.75 5.28572 1.75V0.25Z" fill="currentColor"/>
</svg>
