<svg width="24" height="24" viewBox="0 0 24 24" fill="none" xmlns="http://www.w3.org/2000/svg">
<path d="M9.75 11.9995C9.75 10.7569 10.7574 9.74953 12 9.74953C13.2426 9.74953 14.25 10.7569 14.25 11.9995C14.25 13.2422 13.2426 14.2495 12 14.2495C10.7574 14.2495 9.75 13.2422 9.75 11.9995Z" fill="currentColor"/>
<path fill-rule="evenodd" clip-rule="evenodd" d="M8.58523 3.23181C9.56564 -0.203571 14.4342 -0.203572 15.4147 3.23181C15.7184 4.29621 16.812 4.92757 17.8857 4.65844C21.351 3.78981 23.7853 8.00615 21.3004 10.5729C20.5305 11.3682 20.5305 12.6309 21.3004 13.4262C23.7853 15.9929 21.351 20.2092 17.8857 19.3406C16.812 19.0715 15.7184 19.7028 15.4147 20.7673C14.4342 24.2026 9.56564 24.2026 8.58523 20.7673C8.28146 19.7028 7.18792 19.0715 6.11423 19.3406C2.6489 20.2092 0.214599 15.9929 2.69952 13.4262C3.46944 12.6309 3.46944 11.3682 2.69952 10.5729C0.214599 8.00615 2.6489 3.78981 6.11423 4.65844C7.18792 4.92757 8.28146 4.29621 8.58523 3.23181ZM12 8.24953C9.92893 8.24953 8.25 9.92846 8.25 11.9995C8.25 14.0706 9.92893 15.7495 12 15.7495C14.0711 15.7495 15.75 14.0706 15.75 11.9995C15.75 9.92846 14.0711 8.24953 12 8.24953Z" fill="currentColor"/>
</svg>
